<svg width="37" height="33" viewBox="0 0 37 33" fill="none" xmlns="http://www.w3.org/2000/svg">
<path d="M36.2536 0.511975C35.9606 0.26187 35.6042 0.0954165 35.2227 0.0305098C34.8412 -0.0343969 34.449 0.00469804 34.0882 0.143592L1.34246 12.8616C0.916901 13.0289 0.557262 13.3274 0.316893 13.7127C0.0765237 14.0981 -0.0317698 14.5497 0.00807858 15.0007C0.047927 15.4516 0.233794 15.8779 0.538106 16.2162C0.842417 16.5545 1.24896 16.7868 1.69742 16.8787L10.5894 18.6505V29.4915C10.584 29.9091 10.7065 30.3186 10.9409 30.6661C11.1753 31.0136 11.5106 31.283 11.9028 31.4387C12.1682 31.5431 12.4513 31.5966 12.7369 31.5965C13.0142 31.5968 13.2887 31.5427 13.5447 31.4373C13.8006 31.3319 14.0328 31.1773 14.2278 30.9826L19.3038 25.9655L26.7937 32.4736C27.1775 32.8171 27.6781 33.005 28.1958 32.9999C28.4189 32.9993 28.6406 32.9638 28.8525 32.8946C29.2014 32.7815 29.5152 32.5818 29.7638 32.3146C30.0123 32.0474 30.1875 31.7216 30.2723 31.3685L36.9457 2.5644C37.0331 2.19248 37.0147 1.80392 36.8925 1.4417C36.7704 1.07947 36.5492 0.757705 36.2536 0.511975ZM1.41345 14.8789C1.39234 14.7269 1.42496 14.5723 1.50579 14.4413C1.58663 14.3102 1.71074 14.2108 1.85716 14.1597L31.8874 2.51177L11.1396 17.3173L1.9814 15.5105C1.82886 15.4832 1.68998 15.4062 1.587 15.2917C1.48402 15.1772 1.42291 15.0318 1.41345 14.8789ZM13.2161 29.9827C13.1197 30.0817 12.9953 30.1498 12.8592 30.1779C12.723 30.2061 12.5815 30.1931 12.453 30.1405C12.3221 30.0882 12.21 29.9985 12.1309 29.8829C12.0519 29.7673 12.0095 29.631 12.0092 29.4915V19.6153L18.2389 25.0358L13.2161 29.9827ZM35.5614 2.26618L28.888 31.0527C28.8614 31.1721 28.8029 31.2823 28.7186 31.3717C28.6343 31.4612 28.5273 31.5267 28.4088 31.5615C28.2942 31.6021 28.1705 31.6105 28.0514 31.5858C27.9323 31.561 27.8225 31.504 27.7343 31.4211L12.4352 18.1242L35.4549 1.68729C35.5129 1.77091 35.5524 1.86572 35.5708 1.96548C35.5891 2.06525 35.5859 2.16772 35.5614 2.26618Z" fill="#F8F8F8"/>
</svg>
