<svg width="33" height="33" viewBox="0 0 33 33" fill="none" xmlns="http://www.w3.org/2000/svg">
<path d="M16.5 8.9375C15.0043 8.9375 13.5421 9.38103 12.2985 10.212C11.0549 11.043 10.0855 12.2241 9.51316 13.606C8.94077 14.9878 8.79101 16.5084 9.08281 17.9754C9.37461 19.4424 10.0949 20.7899 11.1525 21.8475C12.2101 22.9051 13.5576 23.6254 15.0246 23.9172C16.4916 24.209 18.0122 24.0592 19.394 23.4868C20.7759 22.9144 21.957 21.9451 22.788 20.7015C23.619 19.4579 24.0625 17.9957 24.0625 16.5C24.0625 14.4943 23.2657 12.5707 21.8475 11.1525C20.4293 9.73426 18.5057 8.9375 16.5 8.9375ZM16.5 22.6875C15.2762 22.6875 14.0799 22.3246 13.0624 21.6447C12.0449 20.9648 11.2518 19.9985 10.7835 18.8679C10.3152 17.7372 10.1926 16.4931 10.4314 15.2929C10.6701 14.0926 11.2594 12.9901 12.1248 12.1248C12.9901 11.2594 14.0926 10.6701 15.2929 10.4314C16.4931 10.1926 17.7372 10.3152 18.8679 10.7835C19.9985 11.2518 20.9648 12.0449 21.6447 13.0624C22.3246 14.0799 22.6875 15.2762 22.6875 16.5C22.6875 18.141 22.0356 19.7148 20.8752 20.8752C19.7148 22.0356 18.141 22.6875 16.5 22.6875ZM24.0625 0H8.9375C6.56713 0 4.29384 0.941626 2.61773 2.61773C0.941626 4.29384 0 6.56713 0 8.9375V24.0625C0 25.2362 0.231175 26.3984 0.680327 27.4827C1.12948 28.5671 1.78781 29.5523 2.61773 30.3823C4.29384 32.0584 6.56713 33 8.9375 33H24.0625C25.2362 33 26.3984 32.7688 27.4827 32.3197C28.5671 31.8705 29.5523 31.2122 30.3823 30.3823C31.2122 29.5523 31.8705 28.5671 32.3197 27.4827C32.7688 26.3984 33 25.2362 33 24.0625V8.9375C33 7.76381 32.7688 6.60161 32.3197 5.51727C31.8705 4.43292 31.2122 3.44766 30.3823 2.61773C29.5523 1.78781 28.5671 1.12948 27.4827 0.680327C26.3984 0.231175 25.2362 0 24.0625 0ZM31.625 24.0625C31.625 26.0682 30.8282 27.9918 29.41 29.41C27.9918 30.8282 26.0682 31.625 24.0625 31.625H8.9375C6.9318 31.625 5.00825 30.8282 3.59001 29.41C2.17176 27.9918 1.375 26.0682 1.375 24.0625V8.9375C1.375 6.9318 2.17176 5.00825 3.59001 3.59001C5.00825 2.17176 6.9318 1.375 8.9375 1.375H24.0625C26.0682 1.375 27.9918 2.17176 29.41 3.59001C30.8282 5.00825 31.625 6.9318 31.625 8.9375V24.0625ZM26.8125 7.5625C26.8125 7.83445 26.7319 8.10029 26.5808 8.32641C26.4297 8.55253 26.2149 8.72876 25.9637 8.83283C25.7124 8.9369 25.436 8.96413 25.1693 8.91108C24.9025 8.85803 24.6575 8.72707 24.4652 8.53477C24.2729 8.34247 24.142 8.09747 24.0889 7.83075C24.0359 7.56403 24.0631 7.28756 24.1672 7.03631C24.2712 6.78506 24.4475 6.57032 24.6736 6.41923C24.8997 6.26814 25.1656 6.1875 25.4375 6.1875C25.8022 6.1875 26.1519 6.33237 26.4098 6.59023C26.6676 6.84809 26.8125 7.19783 26.8125 7.5625Z" fill="#F8F8F8"/>
</svg>
