<svg width="33" height="36" viewBox="0 0 33 36" fill="none" xmlns="http://www.w3.org/2000/svg">
<path d="M32.34 9.88375C30.0644 9.88375 27.8821 8.91681 26.273 7.19565C24.664 5.47448 23.76 3.14008 23.76 0.705982C23.76 0.518744 23.6905 0.339175 23.5667 0.206778C23.4429 0.0743802 23.275 0 23.1 0H16.5C16.325 0 16.1571 0.0743802 16.0333 0.206778C15.9095 0.339175 15.84 0.518744 15.84 0.705982V23.2974C15.8393 24.0552 15.6486 24.7989 15.2878 25.451C14.927 26.1031 14.4092 26.6397 13.7885 27.0049C13.1678 27.3701 12.4669 27.5505 11.7588 27.5273C11.0508 27.5042 10.3615 27.2782 9.76282 26.8731C9.16416 26.468 8.67806 25.8985 8.3552 25.224C8.03233 24.5495 7.88453 23.7947 7.92719 23.0383C7.96985 22.282 8.20141 21.5517 8.59774 20.9236C8.99407 20.2955 9.54065 19.7927 10.1805 19.4675C10.2922 19.4091 10.3868 19.3189 10.4537 19.2068C10.5207 19.0947 10.5574 18.9651 10.56 18.8321V11.4899C10.5615 11.3858 10.5415 11.2826 10.5013 11.1878C10.4612 11.093 10.4019 11.0088 10.3278 10.9413C10.2537 10.8739 10.1666 10.8247 10.0726 10.7975C9.97871 10.7703 9.88032 10.7657 9.7845 10.7839C7.56012 11.2103 5.49558 12.3064 3.83312 13.9437C2.17066 15.5811 0.979256 17.6916 0.398713 20.0277C-0.181829 22.3638 -0.127427 24.8286 0.555535 27.1328C1.2385 29.4371 2.52169 31.4851 4.25453 33.0367C5.98737 34.5883 8.09798 35.579 10.3387 35.8926C12.5794 36.2062 14.8572 35.8297 16.905 34.8073C18.9527 33.7848 20.6853 32.1589 21.8995 30.1202C23.1137 28.0815 23.7591 25.7147 23.76 23.2974V15.7787C26.3411 17.4725 29.3119 18.3648 32.34 18.3555C32.515 18.3555 32.6829 18.2812 32.8067 18.1488C32.9305 18.0164 33 17.8368 33 17.6496V10.5897C33 10.4025 32.9305 10.2229 32.8067 10.0905C32.6829 9.95813 32.515 9.88375 32.34 9.88375ZM31.68 16.9259C28.7255 16.8068 25.8709 15.75 23.4795 13.8902C23.3818 13.8167 23.2672 13.773 23.1481 13.7637C23.029 13.7543 22.9097 13.7798 22.803 13.8373C22.6932 13.8965 22.601 13.9873 22.5368 14.0996C22.4727 14.2119 22.4391 14.3411 22.44 14.4726V23.2974C22.439 25.4099 21.8843 27.4797 20.8387 29.2718C19.7932 31.0639 18.2989 32.5065 16.5254 33.4358C14.7519 34.3651 12.7703 34.7437 10.8057 34.5288C8.84109 34.3139 6.9722 33.514 5.41124 32.22C3.85029 30.926 2.65985 29.1897 1.9751 27.2083C1.29036 25.2269 1.13875 23.0798 1.53751 21.0109C1.93626 18.942 2.8694 17.0341 4.23094 15.504C5.59248 13.9739 7.32786 12.8828 9.24 12.3547V18.4085C8.43726 18.9042 7.77067 19.6173 7.30725 20.476C6.84383 21.3347 6.59991 22.3087 6.6 23.3002C6.60009 24.2917 6.8442 25.2657 7.30778 26.1243C7.77137 26.9829 8.43808 27.6959 9.24092 28.1914C10.0437 28.687 10.9544 28.9478 11.8813 28.9475C12.8082 28.9473 13.7188 28.686 14.5214 28.19C15.324 27.694 15.9904 26.9807 16.4535 26.1219C16.9167 25.2631 17.1604 24.2889 17.16 23.2974V1.41196H22.4565C22.622 3.97022 23.6469 6.37813 25.3421 8.19142C27.0373 10.0047 29.2884 11.101 31.68 11.2781V16.9259Z" fill="#F8F8F8"/>
</svg>
